<svg width="136" height="30" viewBox="0 0 136 30" fill="none" xmlns="http://www.w3.org/2000/svg">
<path d="M50.9 10.62C51.06 11.1667 51.2333 11.7867 51.42 12.48C51.62 13.16 51.8267 13.8667 52.04 14.6C52.2667 15.3333 52.4933 16.0667 52.72 16.8C52.9467 17.5333 53.1667 18.2133 53.38 18.84C53.5533 18.16 53.7267 17.42 53.9 16.62C54.0867 15.82 54.26 14.9933 54.42 14.14C54.58 13.2867 54.7333 12.44 54.88 11.6C55.04 10.7467 55.1867 9.92667 55.32 9.14H58.56C58.0933 11.46 57.5533 13.8133 56.94 16.2C56.34 18.5867 55.6867 20.8533 54.98 23H52.12C51.6533 21.72 51.2 20.38 50.76 18.98C50.32 17.5667 49.8867 16.1533 49.46 14.74C49.0333 16.1533 48.6067 17.5667 48.18 18.98C47.7533 20.38 47.3067 21.72 46.84 23H43.98C43.2733 20.8533 42.6133 18.5867 42 16.2C41.4 13.8133 40.8667 11.46 40.4 9.14H43.78C43.9133 9.92667 44.06 10.7467 44.22 11.6C44.38 12.44 44.5467 13.2867 44.72 14.14C44.8933 14.9933 45.0667 15.82 45.24 16.62C45.4267 17.42 45.6133 18.16 45.8 18.84C46.04 18.1867 46.2733 17.4933 46.5 16.76C46.7267 16.0267 46.9467 15.2933 47.16 14.56C47.3733 13.8267 47.5667 13.12 47.74 12.44C47.9267 11.76 48.0933 11.1533 48.24 10.62H50.9ZM69.0441 23C68.8974 22.52 68.7307 22.0267 68.5441 21.52C68.3707 21.0133 68.1974 20.5067 68.0241 20H62.6241C62.4507 20.5067 62.2707 21.0133 62.0841 21.52C61.9107 22.0267 61.7507 22.52 61.6041 23H58.3641C58.8841 21.5067 59.3774 20.1267 59.8441 18.86C60.3107 17.5933 60.7641 16.4 61.2041 15.28C61.6574 14.16 62.0974 13.1 62.5241 12.1C62.9641 11.0867 63.4174 10.1 63.8841 9.14H66.8641C67.3174 10.1 67.7641 11.0867 68.2041 12.1C68.6441 13.1 69.0841 14.16 69.5241 15.28C69.9774 16.4 70.4374 17.5933 70.9041 18.86C71.3707 20.1267 71.8641 21.5067 72.3841 23H69.0441ZM65.3041 12.28C65.2374 12.48 65.1374 12.7533 65.0041 13.1C64.8707 13.4467 64.7174 13.8467 64.5441 14.3C64.3707 14.7533 64.1774 15.2533 63.9641 15.8C63.7641 16.3467 63.5574 16.92 63.3441 17.52H67.2841C67.0707 16.92 66.8641 16.3467 66.6641 15.8C66.4641 15.2533 66.2707 14.7533 66.0841 14.3C65.9107 13.8467 65.7574 13.4467 65.6241 13.1C65.4907 12.7533 65.3841 12.48 65.3041 12.28ZM77.2659 14.84C77.8259 13.8933 78.3593 12.9467 78.8659 12C79.3726 11.0533 79.8393 10.1 80.2659 9.14H83.7059C82.9459 10.6333 82.1593 12.08 81.3459 13.48C80.5326 14.88 79.6726 16.2867 78.7659 17.7V23H75.6459V17.74C74.7393 16.3267 73.8726 14.9133 73.0459 13.5C72.2326 12.0867 71.4459 10.6333 70.6859 9.14H74.3059C74.7326 10.1 75.1926 11.0533 75.6859 12C76.1793 12.9467 76.7059 13.8933 77.2659 14.84ZM93.7286 12.78C93.7286 13.2867 93.6286 13.7733 93.4286 14.24C93.2286 14.7067 92.9686 15.16 92.6486 15.6C92.3286 16.0267 91.9686 16.44 91.5686 16.84C91.1686 17.24 90.7753 17.62 90.3886 17.98C90.1886 18.1667 89.9686 18.38 89.7286 18.62C89.5019 18.8467 89.2819 19.08 89.0686 19.32C88.8553 19.56 88.6619 19.7867 88.4886 20C88.3286 20.2 88.2286 20.3667 88.1886 20.5H94.1486V23H84.9086C84.8819 22.8533 84.8686 22.6667 84.8686 22.44C84.8686 22.2133 84.8686 22.0533 84.8686 21.96C84.8686 21.32 84.9686 20.7333 85.1686 20.2C85.3819 19.6667 85.6553 19.1733 85.9886 18.72C86.3219 18.2533 86.6953 17.82 87.1086 17.42C87.5353 17.02 87.9553 16.62 88.3686 16.22C88.6886 15.9133 88.9886 15.6267 89.2686 15.36C89.5486 15.08 89.7953 14.8133 90.0086 14.56C90.2219 14.2933 90.3886 14.0333 90.5086 13.78C90.6286 13.5133 90.6886 13.2467 90.6886 12.98C90.6886 12.3933 90.5219 11.98 90.1886 11.74C89.8553 11.5 89.4419 11.38 88.9486 11.38C88.5886 11.38 88.2486 11.44 87.9286 11.56C87.6219 11.6667 87.3353 11.8 87.0686 11.96C86.8153 12.1067 86.5953 12.26 86.4086 12.42C86.2219 12.5667 86.0819 12.6867 85.9886 12.78L84.5086 10.7C85.0953 10.1533 85.7753 9.70667 86.5486 9.36C87.3353 9 88.1753 8.82 89.0686 8.82C89.8819 8.82 90.5819 8.91333 91.1686 9.1C91.7553 9.28667 92.2353 9.55333 92.6086 9.9C92.9953 10.2333 93.2753 10.6467 93.4486 11.14C93.6353 11.62 93.7286 12.1667 93.7286 12.78ZM99.8958 20.46C100.042 20.4733 100.209 20.4867 100.396 20.5C100.596 20.5 100.829 20.5 101.096 20.5C102.656 20.5 103.809 20.1067 104.556 19.32C105.316 18.5333 105.696 17.4467 105.696 16.06C105.696 14.6067 105.336 13.5067 104.616 12.76C103.896 12.0133 102.756 11.64 101.196 11.64C100.982 11.64 100.762 11.6467 100.536 11.66C100.309 11.66 100.096 11.6733 99.8958 11.7V20.46ZM108.916 16.06C108.916 17.26 108.729 18.3067 108.356 19.2C107.982 20.0933 107.449 20.8333 106.756 21.42C106.076 22.0067 105.242 22.4467 104.256 22.74C103.269 23.0333 102.162 23.18 100.936 23.18C100.376 23.18 99.7224 23.1533 98.9758 23.1C98.2291 23.06 97.4958 22.9667 96.7758 22.82V9.32C97.4958 9.18667 98.2424 9.1 99.0158 9.06C99.8024 9.00667 100.476 8.98 101.036 8.98C102.222 8.98 103.296 9.11333 104.256 9.38C105.229 9.64667 106.062 10.0667 106.756 10.64C107.449 11.2133 107.982 11.9467 108.356 12.84C108.729 13.7333 108.916 14.8067 108.916 16.06ZM120.294 23C120.147 22.52 119.981 22.0267 119.794 21.52C119.621 21.0133 119.447 20.5067 119.274 20H113.874C113.701 20.5067 113.521 21.0133 113.334 21.52C113.161 22.0267 113.001 22.52 112.854 23H109.614C110.134 21.5067 110.627 20.1267 111.094 18.86C111.561 17.5933 112.014 16.4 112.454 15.28C112.907 14.16 113.347 13.1 113.774 12.1C114.214 11.0867 114.667 10.1 115.134 9.14H118.114C118.567 10.1 119.014 11.0867 119.454 12.1C119.894 13.1 120.334 14.16 120.774 15.28C121.227 16.4 121.687 17.5933 122.154 18.86C122.621 20.1267 123.114 21.5067 123.634 23H120.294ZM116.554 12.28C116.487 12.48 116.387 12.7533 116.254 13.1C116.121 13.4467 115.967 13.8467 115.794 14.3C115.621 14.7533 115.427 15.2533 115.214 15.8C115.014 16.3467 114.807 16.92 114.594 17.52H118.534C118.321 16.92 118.114 16.3467 117.914 15.8C117.714 15.2533 117.521 14.7533 117.334 14.3C117.161 13.8467 117.007 13.4467 116.874 13.1C116.741 12.7533 116.634 12.48 116.554 12.28ZM128.516 14.84C129.076 13.8933 129.609 12.9467 130.116 12C130.623 11.0533 131.089 10.1 131.516 9.14H134.956C134.196 10.6333 133.409 12.08 132.596 13.48C131.783 14.88 130.923 16.2867 130.016 17.7V23H126.896V17.74C125.989 16.3267 125.123 14.9133 124.296 13.5C123.483 12.0867 122.696 10.6333 121.936 9.14H125.556C125.983 10.1 126.443 11.0533 126.936 12C127.429 12.9467 127.956 13.8933 128.516 14.84Z" fill="#DD2743"/>
<g clip-path="url(#clip0)">
<path d="M29.6344 0.36636C29.2781 0.00887862 28.7431 -0.0961218 28.2769 0.0926094L0.77677 11.3427C0.263018 11.5539 -0.0507527 12.0777 0.00801703 12.6301C0.0654977 13.1826 0.480519 13.6302 1.02679 13.7301L13.9256 16.0751L16.2719 28.9739C16.3706 29.5202 16.8182 29.9352 17.3706 29.9939C17.4144 29.9977 17.4581 30.0002 17.5007 30.0002C18.0032 30.0002 18.4644 29.6965 18.6582 29.2227L29.9082 1.72264C30.0981 1.25757 29.9906 0.722612 29.6344 0.36636Z" fill="#DD2743"/>
</g>
<defs>
<clipPath id="clip0">
<rect width="30" height="30" fill="white"/>
</clipPath>
</defs>
</svg>
